<?xml version="1.0" encoding="utf-8"?>
<!-- Generator: Adobe Illustrator 26.2.1, SVG Export Plug-In . SVG Version: 6.00 Build 0)  -->
<svg version="1.1" id="Layer_1" xmlns="http://www.w3.org/2000/svg" xmlns:xlink="http://www.w3.org/1999/xlink" x="0px" y="0px"
	 viewBox="0 0 144 144" style="enable-background:new 0 0 144 144;" xml:space="preserve">
<style type="text/css">
	.st0{fill:#1663B1;}
	.st1{fill:#969696;}
	.st2{font-family:'FrizQuadrataBold';}
	.st3{font-size:19.8162px;}
	.st4{font-size:19.8161px;}
	.st5{font-size:8.0365px;}
</style>
<circle class="st0" cx="72.1" cy="65.42" r="18.5"/>
<path class="st1" d="M72.05,98.12c0,0-58.51,0-71.45,0c4.13-11.17,19.21-32.64,24.77-36.99c10.62,9.85,31.82,26.7,46.68,26.7V98.12z
	 M72.05,98.12c0,0,58.65,0,71.61,0c-4.14-11.17-19.26-32.64-24.83-36.99c-10.65,9.85-31.89,26.7-46.79,26.7V98.12z"/>
<text transform="matrix(0.6253 -0.7804 0.7804 0.6253 45.3181 60.963)" class="st2 st3">V</text>
<text transform="matrix(0.8445 -0.5356 0.5356 0.8445 54.7808 49.7703)" class="st2 st4">I</text>
<text transform="matrix(0.9896 -0.1436 0.1436 0.9896 61.2528 44.6693)" class="st2 st4">T</text>
<text transform="matrix(0.9353 0.3538 -0.3538 0.9353 73.9251 42.093)" class="st2 st3">A</text>
<text transform="matrix(0.6144 0.789 -0.789 0.6144 88.9597 48.401)" class="st2 st4">S</text>
<text transform="matrix(1 0 0 1 -0.3198 107.5332)"><tspan x="0" y="0" class="st2 st5">E</tspan><tspan x="5.9" y="0" class="st2 st5">N</tspan></text>
<text transform="matrix(1 0 0 1 18.9888 107.4258)" class="st2 st5">S</text>
<text transform="matrix(1 0 0 1 24.7915 107.5332)" class="st2 st5">P</text>
<text transform="matrix(1 0 0 1 30.8208 107.5449)" class="st2 st5">AN</text>
<text transform="matrix(1 0 0 1 46.3032 107.5459)" class="st2 st5">NU</text>
<text transform="matrix(1 0 0 1 61.3521 107.5527)" class="st2 st5">NGS</text>
<text transform="matrix(1 0 0 1 81.873 107.5469)" class="st2 st5">-TE</text>
<text transform="matrix(1 0 0 1 98.6416 107.4844)" class="st2 st5">CH</text>
<text transform="matrix(1 0 0 1 113.1143 107.4639)" class="st2 st5">NI</text>
<text transform="matrix(1 0 0 1 124.4805 107.5264)" class="st2 st5">KE</text>
<text transform="matrix(1 0 0 1 137.6143 107.5527)" class="st2 st5">N</text>
<text transform="matrix(1 0 0 1 12.8921 107.5156)" class="st2 st5">T</text>
</svg>
