<?xml version="1.0" encoding="utf-8"?>
<!-- Generator: Adobe Illustrator 26.2.1, SVG Export Plug-In . SVG Version: 6.00 Build 0)  -->
<svg version="1.1" id="Layer_1" xmlns="http://www.w3.org/2000/svg" xmlns:xlink="http://www.w3.org/1999/xlink" x="0px" y="0px"
	 viewBox="0 0 512 512" style="enable-background:new 0 0 512 512;" xml:space="preserve">
<style type="text/css">
	.st0{fill:#1663B1;}
	.st1{fill:#969696;}
	.st2{font-family:'FrizQuadrataBold';}
	.st3{font-size:67.5902px;}
	.st4{font-size:67.5896px;}
	.st5{font-size:67.5901px;}
	.st6{font-size:67.5899px;}
	.st7{font-size:27.4114px;}
	.st8{letter-spacing:2;}
	.st9{letter-spacing:1;}
</style>
<circle class="st0" cx="258.64" cy="206.99" r="63.08"/>
<path class="st1" d="M258.45,318.52c0,0-199.58,0-243.7,0c14.08-38.11,65.52-111.34,84.49-126.17
	c36.24,33.61,108.52,91.06,159.21,91.06V318.52z M258.45,318.52c0,0,200.04,0,244.26,0c-14.11-38.11-65.68-111.34-84.68-126.17
	c-36.32,33.61-108.77,91.06-159.58,91.06V318.52z"/>
<text transform="matrix(0.6253 -0.7804 0.7804 0.6253 167.2807 191.787)" class="st2 st3">V</text>
<text transform="matrix(0.8445 -0.5356 0.5356 0.8445 199.5566 153.6136)" class="st2 st4">I</text>
<text transform="matrix(0.9896 -0.1436 0.1436 0.9896 221.6303 136.2142)" class="st2 st4">T</text>
<text transform="matrix(0.9353 0.3538 -0.3538 0.9353 264.8514 127.4236)" class="st2 st5">A</text>
<text transform="matrix(0.6144 0.789 -0.789 0.6144 316.1349 148.939)" class="st2 st6">S</text>
<text transform="matrix(1 0 0 1 11.6152 350.6289)"><tspan x="0" y="0" class="st2 st7 st8">E</tspan><tspan x="20.12" y="0" class="st2 st7">N</tspan></text>
<text transform="matrix(1 0 0 1 77.4766 350.2637)" class="st2 st7">S</text>
<text transform="matrix(1 0 0 1 97.2666 350.6289)" class="st2 st7">P</text>
<text transform="matrix(1 0 0 1 117.8301 350.6699)" class="st2 st7 st8">AN</text>
<text transform="matrix(1 0 0 1 170.6406 350.6719)" class="st2 st7 st8">NU</text>
<text transform="matrix(1 0 0 1 221.9678 350.6963)" class="st2 st7 st8">NGS</text>
<text transform="matrix(1 0 0 1 291.9619 350.6777)" class="st2 st7 st9">-TE</text>
<text transform="matrix(1 0 0 1 349.1572 350.4639)" class="st2 st7 st8">CH</text>
<text transform="matrix(1 0 0 1 398.5225 350.3906)" class="st2 st7 st9">NI</text>
<text transform="matrix(1 0 0 1 437.2891 350.6045)" class="st2 st7 st8">KE</text>
<text transform="matrix(1 0 0 1 482.0859 350.6963)" class="st2 st7 st8">N</text>
<text transform="matrix(1 0 0 1 56.6787 350.5723)" class="st2 st7 st8">T</text>
</svg>
