<svg id="Layer_2" data-name="Layer 2" xmlns="http://www.w3.org/2000/svg" viewBox="0 0 1308.25 724.63"><circle cx="655.01" cy="339.75" r="168" style="fill:#1663b1"/><path d="M939.5,717c-135,0-327-153-423.5-242.5C465.5,514,328.5,709,291,810.5H939.5Z" transform="translate(-285.49 -173.75)" style="fill:#969696"/><path d="M940.5,717c135.31,0,327.76-153,424.48-242.5,50.62,39.5,187.93,234.5,225.52,336h-650Z" transform="translate(-285.49 -173.75)" style="fill:#969696"/><path d="M756.91,406,745.6,412.6c-2.05,1.13-14.48,9.16-25.08,9.43a37.27,37.27,0,0,1-14.47-2.37l-94.32-33.13a43.72,43.72,0,0,0-9.5-2.54c-3.2,0-5.28-.31-8.54.3l28.81-36c1.52,1-1.57.82,15.51,8.28a44.5,44.5,0,0,0,8,3.21L721.39,387l-46.61-70.79c-2.19-3.6-4.18-5.43-8.06-6.92a14.68,14.68,0,0,0-13.61.86l23.64-29.5Z" transform="translate(-285.49 -173.75)"/><path d="M795.47,363.53a14.54,14.54,0,0,0,2-4.9c1.37-5.56-.13-9.94-3.21-14.8l-55.43-87.4c-.29-.46-4-4.94-7.1-6.16-3.37-1.27-5.55-2-9.4-1.71l48.79-30.94c-1.62,3.16-1.52,5.65-1.9,9.09s2,8.54,2.29,9l53,83.6c3.18,5,5.23,9.26,10.57,11.63a17.24,17.24,0,0,0,9,1.75Z" transform="translate(-285.49 -173.75)"/><path d="M932.18,204.79a35.92,35.92,0,0,0-4.49-4.63c-2.45-1.82-6.78-2.83-10.7-2.26l-10.15,1.47L904,201.06l13.49,93c1,6.59,1.11,7.66,5.65,12.64a18.8,18.8,0,0,0,7.73,5.61l-57,8.26a38.24,38.24,0,0,0,3.4-4.13c2.94-4.79,3.59-9.07,2.77-14.77L866,205.85l-1.86-.28-14.43,2.09a27.77,27.77,0,0,0-9.21,4.25,28.58,28.58,0,0,0-7.8,6.4l3.63-30.17,99.22-14.39Z" transform="translate(-285.49 -173.75)"/><path d="M1039.2,332.67a14.53,14.53,0,0,0,11-3.72c3.55-3.27,4.48-6.77,4.56-11.55l1-22.92L1017.55,280,1003,297.62c-2.94,3.69-4.84,7.21-4.62,11.72.26,4.91,3.6,8.29,6.14,10.21l-42.76-16.18a37.39,37.39,0,0,0,6.69-3.43c3.67-2.08,6.45-3.33,9.43-6.63l70.19-84.3a10.63,10.63,0,0,0,2.33-4.12,13.69,13.69,0,0,0-4.23-15.26l48.65,18.4L1093,332.83c0,4.61.84,7.44,2.09,11.76a52.09,52.09,0,0,0,4.52,10.94Zm18-101.13-27.48,31.94,26.94,10.19Z" transform="translate(-285.49 -173.75)"/><path d="M1123.17,401.81A102.64,102.64,0,0,1,1106.6,370l-1.67-5.09,18.67-22.3,2.4,16.84c1.28,9.27,6.31,20.41,12.93,28,7.17,8.33,16,12.64,23.56,6.52,7-5.41,6.84-13.76,5-22.33L1164.14,356c-5.48-26.07-3.26-40.81,13.65-53.07,18.62-13.58,42.73-4.3,59.7,16a94.9,94.9,0,0,1,12.28,19.87l5.4,12.22-19,14.81-1.42-9.15a50.43,50.43,0,0,0-7.83-18.54c-4.69-6.62-11-11.25-18.74-9.13-11.32,3.33-8.15,15-4.81,30.44l3.43,14.66c3.55,14.8,0,33.34-13.45,44.24C1171.89,436,1143.1,427.12,1123.17,401.81Z" transform="translate(-285.49 -173.75)"/><path d="M323,896H285.49a5.55,5.55,0,0,0,2.05-1.38,7.69,7.69,0,0,0,2-5.77V847a10.16,10.16,0,0,0-1.1-3.57,10.54,10.54,0,0,0-2.7-2.71H317a3.46,3.46,0,0,0,1.24-.07,1.85,1.85,0,0,0,.88-.36v12.85a5.28,5.28,0,0,0-2-2.49,8.77,8.77,0,0,0-3.72-1.31h-8.32v13.5h8a7.37,7.37,0,0,0,2.19-.14l1.09-.44v12.56a4.88,4.88,0,0,0-2.11-2.71,7.61,7.61,0,0,0-3.73-1H305V887a27.74,27.74,0,0,0,10.88,1.32c6.64-.81,7.23-2,10.66-5Z" transform="translate(-285.49 -173.75)"/><path d="M391.93,844.33a9,9,0,0,0-1.17,4.75l-.07,49.13a28.25,28.25,0,0,1-9-3.14c-5.55-2.92-8.11-5.33-9.86-7.67l-19.2-25.77V887.4a9.94,9.94,0,0,0,1.68,6.06,10.43,10.43,0,0,0,2.19,2.55H339.88a10.15,10.15,0,0,0,2.12-2.55,11.39,11.39,0,0,0,1.67-6.13V852.22a13.66,13.66,0,0,0-1.24-6.65,19.78,19.78,0,0,0-3.57-4.82H356.3l25.63,34.31V849a9.68,9.68,0,0,0-1.17-4.52,13.71,13.71,0,0,0-2.48-3.73h16.13A13.72,13.72,0,0,0,391.93,844.33Z" transform="translate(-285.49 -173.75)"/><path d="M479.14,896.28a41.82,41.82,0,0,1-14.31-2.62l-2-.73-2.48-11.54,6,3.43a23.67,23.67,0,0,0,12.19,2.85c4.46-.22,8-2,8-5.91,0-3.58-2.7-5.62-5.91-7.16l-5.84-2.84c-9.71-4.75-13.87-9.13-13.58-17.6.29-9.34,9.27-14.74,20-15.11a38.51,38.51,0,0,1,9.42,1l5.25,1.31v9.78l-3.28-1.82a20.48,20.48,0,0,0-7.89-2.12c-3.28-.15-6.35.73-7.59,3.72-1.75,4.46,2.78,6.35,8.54,9.13l5.55,2.55c5.62,2.56,10.66,8.32,10.81,15.33C502.21,889.2,492.21,896.21,479.14,896.28Z" transform="translate(-285.49 -173.75)"/><path d="M538,872.66l-4.82-.08c5.25-2,7.81-6.79,8-12.63.14-5-2.27-9.63-7.45-10.14l-1.1-.15V887a10.43,10.43,0,0,0,1.54,6.28,8.47,8.47,0,0,0,2.7,2.85H514a6.4,6.4,0,0,0,1.53-1.24,7.35,7.35,0,0,0,2.34-5.7V847a19.42,19.42,0,0,0-1.61-4.6,6.85,6.85,0,0,0-1.89-1.61h23.94c11.39,0,17.44,6.94,17.88,16C556.44,865.94,547.25,872.73,538,872.66Z" transform="translate(-285.49 -173.75)"/><path d="M601.13,896.12a5.8,5.8,0,0,0,3.73-8l-2.92-8.83H585.37l-3,8.76a6.9,6.9,0,0,0-.07,5.11,5.72,5.72,0,0,0,3.8,3H567.55a14.69,14.69,0,0,0,2.05-2.26,13.18,13.18,0,0,0,2.63-3.87l14.52-42A4.19,4.19,0,0,0,587,846a5.55,5.55,0,0,0-3.79-5.18h21.1l17.22,47.6a15,15,0,0,0,2.49,4.16,20.83,20.83,0,0,0,3.28,3.5Zm-7.66-41-5.84,16.06h11.68Z" transform="translate(-285.49 -173.75)"/><path d="M693.26,844.44a9,9,0,0,0-1.17,4.74L692,898.31a28,28,0,0,1-9-3.14c-5.55-2.92-8.1-5.33-9.86-7.66L654,861.74v25.77a9.89,9.89,0,0,0,1.68,6.06,10.39,10.39,0,0,0,2.18,2.55H641.21a10.15,10.15,0,0,0,2.12-2.55,11.42,11.42,0,0,0,1.68-6.13V852.32a13.75,13.75,0,0,0-1.24-6.64,20,20,0,0,0-3.58-4.82h17.45l25.62,34.31V849.11a9.68,9.68,0,0,0-1.17-4.52,13.13,13.13,0,0,0-2.48-3.73h16.13A13.8,13.8,0,0,0,693.26,844.44Z" transform="translate(-285.49 -173.75)"/><path d="M761.85,844.45a8.93,8.93,0,0,0-1.17,4.74l-.07,49.13a28,28,0,0,1-9-3.14c-5.55-2.92-8.1-5.33-9.86-7.66l-19.19-25.77v25.77a10,10,0,0,0,1.67,6.06,10.85,10.85,0,0,0,2.19,2.55H709.8a10.33,10.33,0,0,0,2.12-2.55,11.43,11.43,0,0,0,1.68-6.14V852.33a13.71,13.71,0,0,0-1.24-6.64,19.8,19.8,0,0,0-3.58-4.82h17.45l25.62,34.31V849.12a9.72,9.72,0,0,0-1.17-4.53,13.08,13.08,0,0,0-2.48-3.72h16.13A13.63,13.63,0,0,0,761.85,844.45Z" transform="translate(-285.49 -173.75)"/><path d="M812.58,896.2v-6.86a16.46,16.46,0,0,1-16.86,7.45c-7.3-1.24-13.5-6.43-13.5-13.87V847.59a12.12,12.12,0,0,0-1.32-4.38,6.5,6.5,0,0,0-3.06-2.34h23.5a8.28,8.28,0,0,0-2.85,2.41,9.85,9.85,0,0,0-1.24,3.72v29.79c0,7.88,2.12,10.8,7.23,11s8.1-5.33,8.1-10.88V846.93a6.85,6.85,0,0,0-1.09-3.5,8.45,8.45,0,0,0-2.56-2.56h22.63a8.43,8.43,0,0,0-3.72,6.28v40.44c0,2.55-.07,4.38,1.31,6.35a7.15,7.15,0,0,0,2.41,2.26Z" transform="translate(-285.49 -173.75)"/><path d="M898.54,844.51a9,9,0,0,0-1.17,4.75l-.07,49.12a28,28,0,0,1-9-3.13c-5.55-2.92-8.1-5.33-9.86-7.67l-19.19-25.77v25.77a9.87,9.87,0,0,0,1.68,6.06,10.22,10.22,0,0,0,2.19,2.55H846.49a10.15,10.15,0,0,0,2.12-2.55,11.39,11.39,0,0,0,1.68-6.13V852.4a13.77,13.77,0,0,0-1.24-6.65,20,20,0,0,0-3.58-4.82h17.45l25.62,34.31V849.18a9.68,9.68,0,0,0-1.17-4.52,13.27,13.27,0,0,0-2.48-3.73H901A13.8,13.8,0,0,0,898.54,844.51Z" transform="translate(-285.49 -173.75)"/><path d="M945.84,897.29c-16.13.29-31.09-10.22-31.17-28.62-.14-16.49,14.82-29.27,31-28.39,4.9.29,9.42.51,12.92,1.68l.08,11.46-3.14-1.9c-1.46-.95-6.72-3-10.37-2.63-12.55,1-14.6,11-14.67,18.25,0,11.46,5.18,21.54,14.16,21.54h3.73a1.41,1.41,0,0,0,.58-.15.85.85,0,0,0,.58-.15V874a6.33,6.33,0,0,0-1-3.5,7.32,7.32,0,0,0-2.48-2.7h17.88v27C962,895.54,952.85,897.14,945.84,897.29Z" transform="translate(-285.49 -173.75)"/><path d="M995.85,897.44a41.8,41.8,0,0,1-14.31-2.63l-2-.73L977,882.54l6,3.43a23.67,23.67,0,0,0,12.19,2.85c4.45-.22,8-2,8-5.91,0-3.58-2.7-5.62-5.91-7.16l-5.84-2.84c-9.71-4.75-13.87-9.13-13.58-17.59.29-9.35,9.27-14.75,20-15.11a38.11,38.11,0,0,1,9.42,1l5.25,1.31v9.78l-3.28-1.82a20.48,20.48,0,0,0-7.89-2.12c-3.28-.15-6.35.73-7.59,3.72-1.75,4.46,2.78,6.35,8.54,9.13l5.55,2.55c5.62,2.56,10.66,8.33,10.8,15.33C1018.92,890.35,1008.92,897.36,995.85,897.44Z" transform="translate(-285.49 -173.75)"/><path d="M1063.7,879a2.61,2.61,0,0,1-1.39,1.39c-1,.58-1.6.07-2.63.07-8.54.44-13.57-.07-22.19.14-2.33.08-3-.07-4.74.59l-2.12.73c.22-1.1,4-7.3,5-9.13.52-1.16,1.32-.87,2.2-.87L1062,872a11.26,11.26,0,0,0,3.07-.66l2.77-.94Z" transform="translate(-285.49 -173.75)"/><path d="M1116.77,853.15a14.9,14.9,0,0,0-1.53-2.12,6.27,6.27,0,0,0-4.16-1.53h-4.16l-1.25.51v38.1c0,2.7,0,3.14,1.54,5.41a7.64,7.64,0,0,0,2.77,2.7h-23.36a15.94,15.94,0,0,0,1.61-1.46,8.19,8.19,0,0,0,2-5.77l-.08-39.27-.72-.22h-5.92a11.23,11.23,0,0,0-3.94,1.17,11.44,11.44,0,0,0-3.5,2.11l3.21-11.9h40.66Z" transform="translate(-285.49 -173.75)"/><path d="M1166.7,896.14h-37.52a5.43,5.43,0,0,0,2-1.38,7.68,7.68,0,0,0,2-5.77V847.16a10.26,10.26,0,0,0-1.1-3.58,10.66,10.66,0,0,0-2.7-2.7h31.31a3.52,3.52,0,0,0,1.25-.07,1.82,1.82,0,0,0,.87-.36v12.84a5.28,5.28,0,0,0-2-2.48,8.77,8.77,0,0,0-3.72-1.31h-8.33V863h8a7.33,7.33,0,0,0,2.19-.14l1.1-.44V875a4.87,4.87,0,0,0-2.12-2.7,7.55,7.55,0,0,0-3.72-1h-5.55v15.84a27.74,27.74,0,0,0,10.88,1.32c6.64-.81,7.22-2,10.66-5Z" transform="translate(-285.49 -173.75)"/><path d="M1231.57,895.14,1223,896.6c-21.82,3.57-39.12-8.32-39-28.55.15-17.08,13.36-29.19,34.46-27.59l9.49.73.36,11.61c-2-1.83-7.52-4.45-13.21-4.31-13.8.37-14.6,11.75-14.67,19.86-.08,10.22,5,20.14,17.37,20a26.66,26.66,0,0,0,11.9-2.63l5.91-2.48Z" transform="translate(-285.49 -173.75)"/><path d="M1300.33,843.38a9.25,9.25,0,0,0-1.17,3.65v39.64c0,2.41-.29,4.16,1,6.28a6.67,6.67,0,0,0,2.71,2.63H1279.6a7.66,7.66,0,0,0,1.75-1.32,7.37,7.37,0,0,0,2.19-5.77V870.68h-15V887c0,2.41-.22,4.16,1.1,6.28a6.31,6.31,0,0,0,2.63,2.34h-23.29a4.62,4.62,0,0,0,1.75-1c1.68-1.6,2.12-3.43,2.12-5.76v-42a8.41,8.41,0,0,0-1-3.65,8,8,0,0,0-2.85-2.77h23.29a9.15,9.15,0,0,0-3.73,6.42v15.69h15V846.67a5.23,5.23,0,0,0-1-3.43c-.87-1.17-1.38-2.19-2.63-2.92H1303C1301.72,841.12,1301.21,842.21,1300.33,843.38Z" transform="translate(-285.49 -173.75)"/><path d="M1368.73,843.7a8.93,8.93,0,0,0-1.17,4.74l-.08,49.13a28,28,0,0,1-9-3.14c-5.55-2.92-8.11-5.33-9.86-7.66L1329.45,861v25.77a10,10,0,0,0,1.68,6.06,10.62,10.62,0,0,0,2.19,2.55h-16.64a10.07,10.07,0,0,0,2.11-2.55,11.34,11.34,0,0,0,1.68-6.14V851.58a13.62,13.62,0,0,0-1.24-6.64,19.78,19.78,0,0,0-3.57-4.82h17.44l25.62,34.31V848.37a9.71,9.71,0,0,0-1.16-4.53,13.66,13.66,0,0,0-2.48-3.72h16.13A13.56,13.56,0,0,0,1368.73,843.7Z" transform="translate(-285.49 -173.75)"/><path d="M1384.42,895.38a5.81,5.81,0,0,0,1.75-1.24c1.68-1.61,2.12-3.43,2.12-5.77v-42a9,9,0,0,0-1.09-3.65,7.61,7.61,0,0,0-2.85-2.63h23.43a9.4,9.4,0,0,0-2.63,2.7,9.29,9.29,0,0,0-1.16,3.58v40.15c0,2.41-.22,4.31,1.09,6.28a7.06,7.06,0,0,0,2.7,2.55Z" transform="translate(-285.49 -173.75)"/><path d="M1469.34,896.17c-1.46,0-9.79.58-15.41-1.9a8.82,8.82,0,0,1-3.72-3.21l-11.61-19.71V886.9c0,2.48-.22,4.16,1,6.28a7.76,7.76,0,0,0,2.7,2.84h-22.78a5.68,5.68,0,0,0,1.53-1.24,7.74,7.74,0,0,0,2.19-6l.08-42a14.2,14.2,0,0,0-1.61-3.94,6.91,6.91,0,0,0-2.55-2.19h23.36a6.56,6.56,0,0,0-2.78,2.48,8.89,8.89,0,0,0-1.17,3.65v19l13.29-17.15a4.6,4.6,0,0,0,.88-4.09,4.77,4.77,0,0,0-3.58-3.87h21l-18.83,22.63,18.54,29.2a13.07,13.07,0,0,0,1.9,2.11c.73.59,1.09,1,1.75,1.54Z" transform="translate(-285.49 -173.75)"/><path d="M1521.75,896h-37.52a5.66,5.66,0,0,0,2-1.39,7.64,7.64,0,0,0,2-5.77V847a10.18,10.18,0,0,0-1.09-3.58,10.66,10.66,0,0,0-2.7-2.7h31.31a3.69,3.69,0,0,0,1.24-.07,1.93,1.93,0,0,0,.88-.37V853.1a5.23,5.23,0,0,0-2-2.48,8.71,8.71,0,0,0-3.73-1.32h-8.32v13.51h8a7.36,7.36,0,0,0,2.19-.15l1.1-.44v12.56a4.91,4.91,0,0,0-2.12-2.7,7.44,7.44,0,0,0-3.72-1h-5.55V886.9a27.57,27.57,0,0,0,10.88,1.31c6.64-.8,7.22-2,10.65-5Z" transform="translate(-285.49 -173.75)"/><path d="M1591.27,844.51a9,9,0,0,0-1.17,4.75l-.07,49.12a28,28,0,0,1-9-3.13c-5.55-2.92-8.11-5.33-9.86-7.67L1552,861.81v25.77a9.94,9.94,0,0,0,1.68,6.06,10.43,10.43,0,0,0,2.19,2.55h-16.64a9.9,9.9,0,0,0,2.11-2.55,11.31,11.31,0,0,0,1.68-6.13V852.4a13.66,13.66,0,0,0-1.24-6.65,19.78,19.78,0,0,0-3.57-4.82h17.44l25.63,34.31V849.18a9.68,9.68,0,0,0-1.17-4.52,13.71,13.71,0,0,0-2.48-3.73h16.13A13.56,13.56,0,0,0,1591.27,844.51Z" transform="translate(-285.49 -173.75)"/><path d="M445.87,852.87a14.9,14.9,0,0,0-1.53-2.12,6.33,6.33,0,0,0-4.16-1.53H436l-1.24.51v38.1c0,2.7,0,3.14,1.54,5.41a7.64,7.64,0,0,0,2.77,2.7H415.72a15.94,15.94,0,0,0,1.61-1.46,8.21,8.21,0,0,0,2-5.77l-.07-39.27-.73-.22h-5.92a11.23,11.23,0,0,0-3.94,1.17,11.44,11.44,0,0,0-3.5,2.11l3.21-11.9H449Z" transform="translate(-285.49 -173.75)"/></svg>