<svg id="Layer_2" data-name="Layer 2" xmlns="http://www.w3.org/2000/svg" viewBox="0 0 1320.01 762.9"><circle cx="657.85" cy="362.17" r="168" style="fill:#1663b1"/><path d="M939.5,717c-135,0-327-153-423.5-242.5C465.5,514,328.5,709,291,810.5H939.5Z" transform="translate(-282.65 -151.33)" style="fill:#969696"/><path d="M940.5,717c135.31,0,327.76-153,424.48-242.5,50.62,39.5,187.93,234.5,225.52,336h-650Z" transform="translate(-282.65 -151.33)" style="fill:#969696"/><text transform="translate(414.56 321.68) rotate(-51.3)" style="font-size:180px;font-family:FrizQuadrataBold, Friz Quadrata">V</text><text transform="translate(500.51 220.01) rotate(-32.38)" style="font-size:180px;font-family:FrizQuadrataBold, Friz Quadrata">I</text><text transform="matrix(0.99, -0.14, 0.14, 0.99, 559.3, 173.67)" style="font-size:180px;font-family:FrizQuadrataBold, Friz Quadrata">T</text><text transform="translate(674.4 150.26) rotate(20.72)" style="font-size:180px;font-family:FrizQuadrataBold, Friz Quadrata">A</text><text transform="matrix(0.61, 0.79, -0.79, 0.61, 810.97, 207.56)" style="font-size:180px;font-family:FrizQuadrataBold, Friz Quadrata">S</text><text transform="translate(0 744.69)" style="font-size:73px;font-family:FrizQuadrataBold, Friz Quadrata"><tspan style="letter-spacing:0.0960041202910959em">E</tspan><tspan x="53.58" y="0">N</tspan></text><text transform="translate(175.4 743.72)" style="font-size:73px;font-family:FrizQuadrataBold, Friz Quadrata">S</text><text transform="translate(228.1 744.69)" style="font-size:73px;font-family:FrizQuadrataBold, Friz Quadrata">P</text><text transform="translate(282.86 744.79)" style="font-size:73px;font-family:FrizQuadrataBold, Friz Quadrata;letter-spacing:0.10799711044520548em">AN</text><text transform="translate(423.5 744.8)" style="font-size:73px;font-family:FrizQuadrataBold, Friz Quadrata;letter-spacing:0.10800379922945205em">NU</text><text transform="translate(560.19 744.87)" style="font-size:73px;font-family:FrizQuadrataBold, Friz Quadrata;letter-spacing:0.10800379922945205em">NGS</text><text transform="translate(746.6 744.82)" style="font-size:73px;font-family:FrizQuadrataBold, Friz Quadrata;letter-spacing:0.05799175941780822em">-TE</text><text transform="translate(898.91 744.25)" style="font-size:73px;font-family:FrizQuadrataBold, Friz Quadrata;letter-spacing:0.09999732448630137em">CH</text><text transform="translate(1030.38 744.05)" style="font-size:73px;font-family:FrizQuadrataBold, Friz Quadrata;letter-spacing:0.055998501712328765em">NI</text><text transform="translate(1133.62 744.62)" style="font-size:73px;font-family:FrizQuadrataBold, Friz Quadrata;letter-spacing:0.0779912243150685em">KE</text><text transform="translate(1252.92 744.87)" style="font-size:73px;font-family:FrizQuadrataBold, Friz Quadrata;letter-spacing:0.0779912243150685em">N</text><text transform="translate(120.01 744.54)" style="font-size:73px;font-family:FrizQuadrataBold, Friz Quadrata;letter-spacing:0.07799791309931507em">T</text></svg>